<?xml version="1.0" encoding="UTF-8"?>
<svg id="Layer_1" data-name="Layer 1" xmlns="http://www.w3.org/2000/svg" viewBox="0 0 774.7 186.65">
  <defs>
    <style>
      .cls-1 {
        font-family: SunWorld-Heavy, 'Sun World';
        font-size: 160.09px;
        font-weight: 800;
        letter-spacing: .02em;
      }
    </style>
  </defs>
  <g>
    <path d="M184.46,47.59c9.15,8.11,10.43,18.82,10.43,26.28,0,13.63-5.14,21.25-9.15,25.47-8.51,8.76-19.75,9.57-27.29,9.57h-15.09v37.96h-24.72V38.67h37.73c9.31,0,19.59,1.3,28.1,8.92ZM152.19,88.47c3.37,0,9.31-.16,13.33-4.06,2.25-2.27,4.01-6,4.01-10.71s-1.61-8.27-4.01-10.54c-3.69-3.57-8.99-4.06-13.81-4.06h-8.35v29.36h8.83Z"/>
    <path d="M235.67,146.86h-24.72V38.67h24.72v108.19Z"/>
    <path d="M56.54,61.09v-19.4c-7.53-2.44-15.21-3.03-22.67-3.03H0v108.19h34.68c8.99,0,27.45-1.14,42.22-16.22,8.83-8.92,14.61-21.25,14.61-38.28,0-12.7-3.37-23-9.07-31.26h-25.9ZM55.71,118.47c-8.03,6.81-19.26,7.3-24.4,7.3h-6.58V59.75h6.58c7.55,0,17.98,1.14,26.01,9.25,4.17,4.22,8.83,11.68,8.83,23.36s-4.66,21.25-10.44,26.12Z"/>
    <rect x="89.93" y="11.98" width="16.59" height="16.76"/>
    <rect x="61.31" y="29.12" width="26.51" height="26.79"/>
    <rect x="72.45" width="15.37" height="15.53"/>
  </g>
  <text class="cls-1" transform="translate(274.67 145.03) scale(.99 1)"><tspan x="0" y="0">MEDIA</tspan></text>
</svg>